<svg width="43" height="36" viewBox="0 0 43 36" fill="none" xmlns="http://www.w3.org/2000/svg">
<path d="M3.84609 32.1077C4.04754 34.0568 5.79192 35.4728 7.74075 35.2692L36.2608 32.2903C37.8824 32.1209 39.1794 30.8673 39.4039 29.2524L42.1933 9.1853C42.4646 7.2331 41.0916 5.43437 39.1369 5.18138L4.98861 0.761604C2.72053 0.468048 0.772049 2.36705 1.00718 4.64192L3.84609 32.1077Z" fill="#002EFF"/>
<path fill-rule="evenodd" clip-rule="evenodd" d="M28.7907 10.0819C28.4881 9.881 28.0148 9.91456 27.7416 10.1504L26.0021 11.6656C25.7285 11.9033 25.7515 12.2658 26.0492 12.4752C26.0492 12.4752 28.7362 14.3453 28.7362 18.3705C28.7362 22.1864 25.9035 24.3855 25.9035 24.3855C25.6181 24.6067 25.6058 24.9819 25.8795 25.2201L27.6058 26.7107C27.879 26.9489 28.3527 26.9777 28.6582 26.7849C28.6582 26.7849 32.716 24.1624 32.716 18.3842C32.716 12.6463 28.7907 10.0819 28.7907 10.0819Z" fill="#FF3D00"/>
<path fill-rule="evenodd" clip-rule="evenodd" d="M13.3761 19.6245C13.3761 19.6245 12.8913 19.5779 12.8913 19.9707C12.8913 22.19 14.537 23.7716 17.1226 23.7716C19.0419 23.7716 19.8614 23.3071 21.0205 22.4348C21.2917 22.2304 21.5807 22.04 21.8 22.2804C21.9528 22.4449 23.989 24.3343 23.989 24.3343C24.2441 24.5747 24.1743 24.8618 23.9008 25.0921C23.6292 25.3234 20.5843 27.7004 17.0854 27.7004C12.5089 27.7004 8.11487 25.699 8.11487 18.1612C8.11487 12.0847 11.5398 8.65411 16.5648 8.65411C21.9622 8.65411 25.0132 12.4425 25.0132 17.5514V18.844C25.0132 19.3711 24.5879 19.6245 24.237 19.6245H13.3761ZM19.802 14.443C19.2814 13.337 18.2039 12.5123 16.5648 12.5123C14.9275 12.5123 13.8486 13.337 13.3275 14.443C13.0299 15.1225 12.9163 15.6236 12.879 16.444H20.25C20.2123 15.6236 20.0996 15.1225 19.802 14.443Z" fill="white"/>
<mask id="mask0" mask-type="alpha" maskUnits="userSpaceOnUse" x="8" y="8" width="18" height="20">
<path fill-rule="evenodd" clip-rule="evenodd" d="M13.3761 19.6245C13.3761 19.6245 12.8913 19.5779 12.8913 19.9707C12.8913 22.19 14.537 23.7716 17.1226 23.7716C19.0419 23.7716 19.8614 23.3071 21.0205 22.4348C21.2917 22.2304 21.5807 22.04 21.8 22.2804C21.9528 22.4449 23.989 24.3343 23.989 24.3343C24.2441 24.5747 24.1743 24.8618 23.9008 25.0921C23.6292 25.3234 20.5843 27.7004 17.0854 27.7004C12.5089 27.7004 8.11487 25.699 8.11487 18.1612C8.11487 12.0847 11.5398 8.65411 16.5648 8.65411C21.9622 8.65411 25.0132 12.4425 25.0132 17.5514V18.844C25.0132 19.3711 24.5879 19.6245 24.237 19.6245H13.3761ZM19.802 14.443C19.2814 13.337 18.2039 12.5123 16.5648 12.5123C14.9275 12.5123 13.8486 13.337 13.3275 14.443C13.0299 15.1225 12.9163 15.6236 12.879 16.444H20.25C20.2123 15.6236 20.0996 15.1225 19.802 14.443Z" fill="white"/>
</mask>
<g mask="url(#mask0)">
</g>
</svg>
